<svg width="1024" height="1024" xmlns="http://www.w3.org/2000/svg" class="icon">
 <defs>
  <style type="text/css">@font-face { font-family: uc-nexus-iconfont; src: url("chrome-extension://pogijhnlcfmcppgimcaccdkmbedjkmhi/res/font_9qmmi8b8jsxxbt9.woff") format("woff"), url("chrome-extension://pogijhnlcfmcppgimcaccdkmbedjkmhi/res/font_9qmmi8b8jsxxbt9.ttf") format("truetype"); }</style>
 </defs>
 <g>
  <title>background</title>
  <rect fill="none" id="canvas_background" height="602" width="802" y="-1" x="-1"/>
 </g>
 <g>
  <title>Layer 1</title>
  <path id="svg_1" fill="#707070" d="m945.49333,889.6l-853.33333,0a42.66667,42.66667 0 0 1 -42.66667,-42.66667l0,-682.66666a42.66667,42.66667 0 0 1 42.66667,-42.66667l853.33333,0a42.66667,42.66667 0 0 1 42.66667,42.66667l0,682.66666a42.66667,42.66667 0 0 1 -42.66667,42.66667zm-810.66666,-85.33333l768,0l0,-597.33334l-768,0l0,597.33334z"/>
  <path id="svg_2" fill="#707070" d="m518.82667,548.26667a42.66667,42.66667 0 0 1 -26.88,-9.38667l-426.66667,-341.33333a42.66667,42.66667 0 0 1 -13.65333,-47.78667a42.66667,42.66667 0 0 1 42.66666,-28.16l853.33334,0a42.66667,42.66667 0 0 1 40.10666,28.16a42.66667,42.66667 0 0 1 -13.65333,47.78667l-426.66667,341.33333a42.66667,42.66667 0 0 1 -28.58666,9.38667zm-305.49334,-341.33334l305.06667,243.62667l305.06667,-243.62667l-610.13334,0z"/>
  <ellipse stroke="#000" ry="162.500278" rx="167.045738" id="svg_3" cy="165.976689" cx="857.45517" stroke-width="1.5" fill="#f41a1a"/>
 </g>
</svg>