<?xml version="1.0" standalone="no"?><!DOCTYPE svg PUBLIC "-//W3C//DTD SVG 1.1//EN" "http://www.w3.org/Graphics/SVG/1.1/DTD/svg11.dtd"><svg t="1594901496049" class="icon" viewBox="0 0 1024 1024" version="1.1" xmlns="http://www.w3.org/2000/svg" p-id="8357" xmlns:xlink="http://www.w3.org/1999/xlink" width="50" height="50"><defs><style type="text/css">@font-face { font-family: uc-nexus-iconfont; src: url("chrome-extension://pogijhnlcfmcppgimcaccdkmbedjkmhi/res/font_9qmmi8b8jsxxbt9.woff") format("woff"), url("chrome-extension://pogijhnlcfmcppgimcaccdkmbedjkmhi/res/font_9qmmi8b8jsxxbt9.ttf") format("truetype"); }
</style></defs><path d="M824.851 244.808c-6.212-85.084-77.458-152.415-164.149-152.415h-428.83c-90.606 0-164.32 73.814-164.32 164.544v243.046c0 81.294 59.309 148.982 136.914 162.071 2.793 39.422 19.415 76.023 47.518 104.1 30.903 30.875 72.115 47.879 116.044 47.879h122.618l69.258 104.65a27.026 27.026 0 0 0 45.578-0.784l63.714-103.866H796.86c43.928 0 85.136-17.005 116.033-47.881 30.905-30.886 47.925-72.087 47.925-116.015V407.091c0-81.228-58.848-148.901-135.967-162.283zM121.608 499.983V256.937c0-60.923 49.465-110.488 110.265-110.488h428.83c56.031 0 102.426 41.879 109.557 95.948H368.03c-90.423 0-163.987 73.881-163.987 164.694v199.641c-47.37-12.37-82.435-55.537-82.435-106.749z m785.155 150.154c0 60.566-49.302 109.84-109.903 109.84H654.068c-9.4 0-18.124 4.884-23.039 12.896l-49.45 80.614-53.869-81.398a27.028 27.028 0 0 0-22.539-12.112H368.029c-60.616 0-109.931-49.274-109.931-109.84v-6.38c0.505-2.065 0.802-4.211 0.802-6.432s-0.297-4.367-0.802-6.432V407.091c0-61.006 49.315-110.639 109.931-110.639H796.86c60.601 0 109.903 49.632 109.903 110.639v243.046z" fill="#109c8b" p-id="8358"></path><path d="M446.924 525.415m-59.177 0a59.177 59.177 0 1 0 118.354 0 59.177 59.177 0 1 0-118.354 0Z" fill="#109c8b" p-id="8359"></path><path d="M717.965 525.415m-59.177 0a59.177 59.177 0 1 0 118.354 0 59.177 59.177 0 1 0-118.354 0Z" fill="#109c8b" p-id="8360"></path></svg>